<mxfile host="Electron" agent="Mozilla/5.0 (Windows NT 10.0; Win64; x64) AppleWebKit/537.36 (KHTML, like Gecko) draw.io/27.0.9 Chrome/134.0.6998.205 Electron/35.4.0 Safari/537.36" version="27.0.9">
  <diagram id="S8nBP2fH_vIewZ_T9yS_" name="Page-1">
    <mxGraphModel dx="3296" dy="1637" grid="1" gridSize="10" guides="1" tooltips="1" connect="1" arrows="1" fold="1" page="1" pageScale="1" pageWidth="850" pageHeight="1100" math="0" shadow="0">
      <root>
        <mxCell id="0" />
        <mxCell id="1" parent="0" />
        <mxCell id="94An9k2Zq0kxbVUy8CHK-17" style="edgeStyle=none;curved=1;rounded=0;orthogonalLoop=1;jettySize=auto;html=1;exitX=0.5;exitY=1;exitDx=0;exitDy=0;fontSize=12;startSize=8;endSize=8;" edge="1" parent="1" source="start" target="process_menu">
          <mxGeometry relative="1" as="geometry" />
        </mxCell>
        <mxCell id="start" value="Start" style="ellipse" parent="1" vertex="1">
          <mxGeometry x="300" y="20" width="80" height="40" as="geometry" />
        </mxCell>
        <mxCell id="94An9k2Zq0kxbVUy8CHK-2" style="edgeStyle=none;curved=1;rounded=0;orthogonalLoop=1;jettySize=auto;html=1;exitX=0.5;exitY=1;exitDx=0;exitDy=0;entryX=0.5;entryY=0;entryDx=0;entryDy=0;fontSize=12;startSize=8;endSize=8;" edge="1" parent="1" source="process_menu" target="input_menu">
          <mxGeometry relative="1" as="geometry" />
        </mxCell>
        <mxCell id="process_menu" value="แสดงเมนูหลัก (1. เครื่องดื่ม 2. ของทานเล่น 3. ยกเลิก)" style="rectangle" parent="1" vertex="1">
          <mxGeometry x="260" y="130" width="160" height="60" as="geometry" />
        </mxCell>
        <mxCell id="94An9k2Zq0kxbVUy8CHK-19" style="edgeStyle=none;curved=1;rounded=0;orthogonalLoop=1;jettySize=auto;html=1;exitX=0.5;exitY=1;exitDx=0;exitDy=0;fontSize=12;startSize=8;endSize=8;" edge="1" parent="1" source="input_menu" target="cond_clear_input">
          <mxGeometry relative="1" as="geometry" />
        </mxCell>
        <mxCell id="input_menu" value="Input choice_menu" style="parallelogram" parent="1" vertex="1">
          <mxGeometry x="260" y="210" width="160" height="40" as="geometry" />
        </mxCell>
        <mxCell id="94An9k2Zq0kxbVUy8CHK-18" style="edgeStyle=none;curved=1;rounded=0;orthogonalLoop=1;jettySize=auto;html=1;exitX=1;exitY=0.5;exitDx=0;exitDy=0;entryX=0;entryY=0.5;entryDx=0;entryDy=0;fontSize=12;startSize=8;endSize=8;" edge="1" parent="1" source="cond_clear_input" target="clear_input">
          <mxGeometry relative="1" as="geometry" />
        </mxCell>
        <mxCell id="cond_clear_input" value="choice_menu == 0?" style="rhombus" parent="1" vertex="1">
          <mxGeometry x="260" y="330" width="160" height="60" as="geometry" />
        </mxCell>
        <mxCell id="clear_input" value="clear input buffer" style="rectangle" parent="1" vertex="1">
          <mxGeometry x="480" y="340" width="160" height="40" as="geometry" />
        </mxCell>
        <mxCell id="cond_drink" value="choice_menu == 1?" style="rhombus" parent="1" vertex="1">
          <mxGeometry x="50" y="410" width="160" height="60" as="geometry" />
        </mxCell>
        <mxCell id="drink_loop" value="Drink Menu Loop" style="rectangle" parent="1" vertex="1">
          <mxGeometry x="50" y="500" width="160" height="60" as="geometry" />
        </mxCell>
        <mxCell id="94An9k2Zq0kxbVUy8CHK-9" style="edgeStyle=none;curved=1;rounded=0;orthogonalLoop=1;jettySize=auto;html=1;exitX=0.5;exitY=1;exitDx=0;exitDy=0;entryX=0.5;entryY=0;entryDx=0;entryDy=0;fontSize=12;startSize=8;endSize=8;" edge="1" parent="1" source="cond_snack" target="snack_loop">
          <mxGeometry relative="1" as="geometry" />
        </mxCell>
        <mxCell id="cond_snack" value="choice_menu == 2?" style="rhombus" parent="1" vertex="1">
          <mxGeometry x="260" y="490" width="160" height="60" as="geometry" />
        </mxCell>
        <mxCell id="94An9k2Zq0kxbVUy8CHK-10" style="edgeStyle=none;curved=1;rounded=0;orthogonalLoop=1;jettySize=auto;html=1;exitX=0.5;exitY=1;exitDx=0;exitDy=0;fontSize=12;startSize=8;endSize=8;" edge="1" parent="1" source="snack_loop" target="func_snack">
          <mxGeometry relative="1" as="geometry" />
        </mxCell>
        <mxCell id="snack_loop" value="Snack Menu Loop" style="rectangle" parent="1" vertex="1">
          <mxGeometry x="260" y="575" width="160" height="60" as="geometry" />
        </mxCell>
        <mxCell id="94An9k2Zq0kxbVUy8CHK-16" style="edgeStyle=none;curved=1;rounded=0;orthogonalLoop=1;jettySize=auto;html=1;exitX=0.5;exitY=1;exitDx=0;exitDy=0;entryX=0.5;entryY=0;entryDx=0;entryDy=0;fontSize=12;startSize=8;endSize=8;" edge="1" parent="1" source="cond_exit" target="exit_main">
          <mxGeometry relative="1" as="geometry" />
        </mxCell>
        <mxCell id="cond_exit" value="choice_menu == 3?" style="rhombus" parent="1" vertex="1">
          <mxGeometry x="470" y="590" width="160" height="60" as="geometry" />
        </mxCell>
        <mxCell id="exit_main" value="condition = false" style="rectangle" parent="1" vertex="1">
          <mxGeometry x="470" y="670" width="160" height="40" as="geometry" />
        </mxCell>
        <mxCell id="invalid_choice" value="แสดงข้อความ &#39;กรอก 1,2 หรือ 3 เท่านั้น&#39;" style="rectangle" parent="1" vertex="1">
          <mxGeometry x="690" y="730" width="160" height="40" as="geometry" />
        </mxCell>
        <mxCell id="stop" value="Stop" style="ellipse" parent="1" vertex="1">
          <mxGeometry x="310" y="1020" width="80" height="40" as="geometry" />
        </mxCell>
        <mxCell id="func_drink" value="Show_menu_drink()" style="swimlane" parent="1" vertex="1">
          <mxGeometry x="60" y="610" width="120" height="40" as="geometry" />
        </mxCell>
        <mxCell id="func_snack" value="Show_menu_snack()" style="swimlane" parent="1" vertex="1">
          <mxGeometry x="280" y="675" width="120" height="40" as="geometry" />
        </mxCell>
        <mxCell id="94An9k2Zq0kxbVUy8CHK-32" style="edgeStyle=none;curved=1;rounded=0;orthogonalLoop=1;jettySize=auto;html=1;exitX=0.5;exitY=1;exitDx=0;exitDy=0;entryX=0.5;entryY=0;entryDx=0;entryDy=0;fontSize=12;startSize=8;endSize=8;" edge="1" parent="1" source="payment_loop" target="stop">
          <mxGeometry relative="1" as="geometry" />
        </mxCell>
        <mxCell id="payment_loop" value="Payment &amp; Change Loop" style="rectangle" parent="1" vertex="1">
          <mxGeometry x="265" y="880" width="160" height="60" as="geometry" />
        </mxCell>
        <mxCell id="94An9k2Zq0kxbVUy8CHK-6" value="" style="endArrow=classic;html=1;rounded=0;fontSize=12;startSize=8;endSize=8;curved=1;entryX=0.438;entryY=0;entryDx=0;entryDy=0;entryPerimeter=0;" edge="1" parent="1" target="cond_drink">
          <mxGeometry width="50" height="50" relative="1" as="geometry">
            <mxPoint x="120" y="360" as="sourcePoint" />
            <mxPoint x="310" y="340" as="targetPoint" />
          </mxGeometry>
        </mxCell>
        <mxCell id="94An9k2Zq0kxbVUy8CHK-7" value="" style="endArrow=none;html=1;rounded=0;fontSize=12;startSize=8;endSize=8;curved=1;entryX=0;entryY=0.5;entryDx=0;entryDy=0;" edge="1" parent="1" target="cond_clear_input">
          <mxGeometry width="50" height="50" relative="1" as="geometry">
            <mxPoint x="120" y="360" as="sourcePoint" />
            <mxPoint x="310" y="340" as="targetPoint" />
          </mxGeometry>
        </mxCell>
        <mxCell id="94An9k2Zq0kxbVUy8CHK-12" value="" style="endArrow=none;html=1;rounded=0;fontSize=12;startSize=8;endSize=8;curved=1;exitX=1;exitY=0.5;exitDx=0;exitDy=0;" edge="1" parent="1" source="cond_drink">
          <mxGeometry width="50" height="50" relative="1" as="geometry">
            <mxPoint x="340" y="530" as="sourcePoint" />
            <mxPoint x="340" y="440" as="targetPoint" />
          </mxGeometry>
        </mxCell>
        <mxCell id="94An9k2Zq0kxbVUy8CHK-13" value="" style="endArrow=classic;html=1;rounded=0;fontSize=12;startSize=8;endSize=8;curved=1;entryX=0.5;entryY=0;entryDx=0;entryDy=0;" edge="1" parent="1" target="cond_snack">
          <mxGeometry width="50" height="50" relative="1" as="geometry">
            <mxPoint x="340" y="440" as="sourcePoint" />
            <mxPoint x="390" y="480" as="targetPoint" />
          </mxGeometry>
        </mxCell>
        <mxCell id="94An9k2Zq0kxbVUy8CHK-14" value="" style="endArrow=none;html=1;rounded=0;fontSize=12;startSize=8;endSize=8;curved=1;entryX=1;entryY=0.5;entryDx=0;entryDy=0;" edge="1" parent="1" target="cond_snack">
          <mxGeometry width="50" height="50" relative="1" as="geometry">
            <mxPoint x="560" y="520" as="sourcePoint" />
            <mxPoint x="380" y="630" as="targetPoint" />
          </mxGeometry>
        </mxCell>
        <mxCell id="94An9k2Zq0kxbVUy8CHK-15" value="" style="endArrow=classic;html=1;rounded=0;fontSize=12;startSize=8;endSize=8;curved=1;entryX=0.5;entryY=0;entryDx=0;entryDy=0;" edge="1" parent="1" target="cond_exit">
          <mxGeometry width="50" height="50" relative="1" as="geometry">
            <mxPoint x="550" y="520" as="sourcePoint" />
            <mxPoint x="500" y="600" as="targetPoint" />
          </mxGeometry>
        </mxCell>
        <mxCell id="94An9k2Zq0kxbVUy8CHK-20" value="" style="endArrow=classic;html=1;rounded=0;fontSize=12;startSize=8;endSize=8;curved=1;" edge="1" parent="1">
          <mxGeometry width="50" height="50" relative="1" as="geometry">
            <mxPoint x="560" y="290" as="sourcePoint" />
            <mxPoint x="350" y="290" as="targetPoint" />
          </mxGeometry>
        </mxCell>
        <mxCell id="94An9k2Zq0kxbVUy8CHK-21" value="" style="endArrow=none;html=1;rounded=0;fontSize=12;startSize=8;endSize=8;curved=1;exitX=0.5;exitY=0;exitDx=0;exitDy=0;" edge="1" parent="1" source="clear_input">
          <mxGeometry width="50" height="50" relative="1" as="geometry">
            <mxPoint x="320" y="330" as="sourcePoint" />
            <mxPoint x="560" y="290" as="targetPoint" />
          </mxGeometry>
        </mxCell>
        <mxCell id="94An9k2Zq0kxbVUy8CHK-22" value="" style="ellipse;whiteSpace=wrap;html=1;aspect=fixed;" vertex="1" parent="1">
          <mxGeometry x="332" y="280" width="20" height="20" as="geometry" />
        </mxCell>
        <mxCell id="94An9k2Zq0kxbVUy8CHK-23" value="" style="endArrow=none;html=1;rounded=0;fontSize=12;startSize=8;endSize=8;curved=1;entryX=1;entryY=0.5;entryDx=0;entryDy=0;" edge="1" parent="1" target="cond_exit">
          <mxGeometry width="50" height="50" relative="1" as="geometry">
            <mxPoint x="780" y="620" as="sourcePoint" />
            <mxPoint x="580" y="580" as="targetPoint" />
          </mxGeometry>
        </mxCell>
        <mxCell id="94An9k2Zq0kxbVUy8CHK-24" value="" style="endArrow=classic;html=1;rounded=0;fontSize=12;startSize=8;endSize=8;curved=1;entryX=0.549;entryY=-0.064;entryDx=0;entryDy=0;entryPerimeter=0;" edge="1" parent="1" target="invalid_choice">
          <mxGeometry width="50" height="50" relative="1" as="geometry">
            <mxPoint x="778" y="620" as="sourcePoint" />
            <mxPoint x="580" y="580" as="targetPoint" />
          </mxGeometry>
        </mxCell>
        <mxCell id="94An9k2Zq0kxbVUy8CHK-26" value="" style="endArrow=none;html=1;rounded=0;fontSize=12;startSize=8;endSize=8;curved=1;entryX=0.5;entryY=1;entryDx=0;entryDy=0;" edge="1" parent="1" target="func_drink">
          <mxGeometry width="50" height="50" relative="1" as="geometry">
            <mxPoint x="120" y="830" as="sourcePoint" />
            <mxPoint x="360" y="770" as="targetPoint" />
          </mxGeometry>
        </mxCell>
        <mxCell id="94An9k2Zq0kxbVUy8CHK-27" value="" style="endArrow=none;html=1;rounded=0;fontSize=12;startSize=8;endSize=8;curved=1;entryX=0.5;entryY=1;entryDx=0;entryDy=0;" edge="1" parent="1" target="func_snack">
          <mxGeometry width="50" height="50" relative="1" as="geometry">
            <mxPoint x="340" y="820" as="sourcePoint" />
            <mxPoint x="360" y="770" as="targetPoint" />
          </mxGeometry>
        </mxCell>
        <mxCell id="94An9k2Zq0kxbVUy8CHK-28" value="" style="endArrow=none;html=1;rounded=0;fontSize=12;startSize=8;endSize=8;curved=1;entryX=0.5;entryY=1;entryDx=0;entryDy=0;" edge="1" parent="1" target="exit_main">
          <mxGeometry width="50" height="50" relative="1" as="geometry">
            <mxPoint x="550" y="820" as="sourcePoint" />
            <mxPoint x="360" y="770" as="targetPoint" />
          </mxGeometry>
        </mxCell>
        <mxCell id="94An9k2Zq0kxbVUy8CHK-29" value="" style="endArrow=none;html=1;rounded=0;fontSize=12;startSize=8;endSize=8;curved=1;" edge="1" parent="1">
          <mxGeometry width="50" height="50" relative="1" as="geometry">
            <mxPoint x="120" y="830" as="sourcePoint" />
            <mxPoint x="550" y="830" as="targetPoint" />
          </mxGeometry>
        </mxCell>
        <mxCell id="94An9k2Zq0kxbVUy8CHK-31" value="" style="endArrow=classic;html=1;rounded=0;fontSize=12;startSize=8;endSize=8;curved=1;entryX=0.5;entryY=0;entryDx=0;entryDy=0;" edge="1" parent="1" target="payment_loop">
          <mxGeometry width="50" height="50" relative="1" as="geometry">
            <mxPoint x="340" y="830" as="sourcePoint" />
            <mxPoint x="360" y="770" as="targetPoint" />
          </mxGeometry>
        </mxCell>
        <mxCell id="94An9k2Zq0kxbVUy8CHK-34" value="" style="endArrow=none;html=1;rounded=0;fontSize=12;startSize=8;endSize=8;curved=1;entryX=0.5;entryY=1;entryDx=0;entryDy=0;" edge="1" parent="1" target="invalid_choice">
          <mxGeometry width="50" height="50" relative="1" as="geometry">
            <mxPoint x="770" y="1120" as="sourcePoint" />
            <mxPoint x="630" y="530" as="targetPoint" />
          </mxGeometry>
        </mxCell>
        <mxCell id="94An9k2Zq0kxbVUy8CHK-35" value="" style="endArrow=none;html=1;rounded=0;fontSize=12;startSize=8;endSize=8;curved=1;" edge="1" parent="1">
          <mxGeometry width="50" height="50" relative="1" as="geometry">
            <mxPoint x="-110" y="1100" as="sourcePoint" />
            <mxPoint x="770" y="1100" as="targetPoint" />
          </mxGeometry>
        </mxCell>
        <mxCell id="94An9k2Zq0kxbVUy8CHK-36" value="" style="endArrow=classic;html=1;rounded=0;fontSize=12;startSize=8;endSize=8;curved=1;" edge="1" parent="1">
          <mxGeometry width="50" height="50" relative="1" as="geometry">
            <mxPoint x="-110" y="290" as="sourcePoint" />
            <mxPoint x="320" y="290" as="targetPoint" />
          </mxGeometry>
        </mxCell>
        <mxCell id="94An9k2Zq0kxbVUy8CHK-37" value="" style="endArrow=none;html=1;rounded=0;fontSize=12;startSize=8;endSize=8;curved=1;" edge="1" parent="1">
          <mxGeometry width="50" height="50" relative="1" as="geometry">
            <mxPoint x="-110" y="1090" as="sourcePoint" />
            <mxPoint x="-110" y="290" as="targetPoint" />
          </mxGeometry>
        </mxCell>
      </root>
    </mxGraphModel>
  </diagram>
</mxfile>
